<svg width="21" height="21" viewBox="0 0 21 21" fill="none" xmlns="http://www.w3.org/2000/svg">
<g opacity="0.7">
<path d="M17.2083 0C18.2139 0 19.1784 0.399478 19.8894 1.11055C20.6005 1.82163 21 2.78605 21 3.79167V17.2083C21 18.2139 20.6005 19.1784 19.8894 19.8894C19.1784 20.6005 18.2139 21 17.2083 21H3.79167C2.78605 21 1.82163 20.6005 1.11055 19.8894C0.399478 19.1784 0 18.2139 0 17.2083V3.79167C0 2.78605 0.399478 1.82163 1.11055 1.11055C1.82163 0.399478 2.78605 0 3.79167 0H17.2083ZM19.25 6.41667H1.75V17.2083C1.75 18.3353 2.66467 19.25 3.79167 19.25H17.2083C17.7498 19.25 18.2691 19.0349 18.652 18.652C19.0349 18.2691 19.25 17.7498 19.25 17.2083V6.41667ZM5.54167 13.4167C5.92844 13.4167 6.29937 13.5703 6.57286 13.8438C6.84635 14.1173 7 14.4882 7 14.875C7 15.2618 6.84635 15.6327 6.57286 15.9062C6.29937 16.1797 5.92844 16.3333 5.54167 16.3333C5.15489 16.3333 4.78396 16.1797 4.51047 15.9062C4.23698 15.6327 4.08333 15.2618 4.08333 14.875C4.08333 14.4882 4.23698 14.1173 4.51047 13.8438C4.78396 13.5703 5.15489 13.4167 5.54167 13.4167ZM10.5 13.4167C10.8868 13.4167 11.2577 13.5703 11.5312 13.8438C11.8047 14.1173 11.9583 14.4882 11.9583 14.875C11.9583 15.2618 11.8047 15.6327 11.5312 15.9062C11.2577 16.1797 10.8868 16.3333 10.5 16.3333C10.1132 16.3333 9.74229 16.1797 9.4688 15.9062C9.19531 15.6327 9.04167 15.2618 9.04167 14.875C9.04167 14.4882 9.19531 14.1173 9.4688 13.8438C9.74229 13.5703 10.1132 13.4167 10.5 13.4167ZM5.54167 8.75C5.92844 8.75 6.29937 8.90365 6.57286 9.17714C6.84635 9.45063 7 9.82156 7 10.2083C7 10.5951 6.84635 10.966 6.57286 11.2395C6.29937 11.513 5.92844 11.6667 5.54167 11.6667C5.15489 11.6667 4.78396 11.513 4.51047 11.2395C4.23698 10.966 4.08333 10.5951 4.08333 10.2083C4.08333 9.82156 4.23698 9.45063 4.51047 9.17714C4.78396 8.90365 5.15489 8.75 5.54167 8.75ZM10.5 8.75C10.8868 8.75 11.2577 8.90365 11.5312 9.17714C11.8047 9.45063 11.9583 9.82156 11.9583 10.2083C11.9583 10.5951 11.8047 10.966 11.5312 11.2395C11.2577 11.513 10.8868 11.6667 10.5 11.6667C10.1132 11.6667 9.74229 11.513 9.4688 11.2395C9.19531 10.966 9.04167 10.5951 9.04167 10.2083C9.04167 9.82156 9.19531 9.45063 9.4688 9.17714C9.74229 8.90365 10.1132 8.75 10.5 8.75ZM15.4583 8.75C15.8451 8.75 16.216 8.90365 16.4895 9.17714C16.763 9.45063 16.9167 9.82156 16.9167 10.2083C16.9167 10.5951 16.763 10.966 16.4895 11.2395C16.216 11.513 15.8451 11.6667 15.4583 11.6667C15.0716 11.6667 14.7006 11.513 14.4271 11.2395C14.1536 10.966 14 10.5951 14 10.2083C14 9.82156 14.1536 9.45063 14.4271 9.17714C14.7006 8.90365 15.0716 8.75 15.4583 8.75ZM17.2083 1.75H3.79167C3.25018 1.75 2.73088 1.9651 2.34799 2.34799C1.9651 2.73088 1.75 3.25018 1.75 3.79167V4.66667H19.25V3.79167C19.25 3.25018 19.0349 2.73088 18.652 2.34799C18.2691 1.9651 17.7498 1.75 17.2083 1.75Z" fill="#1C2121"/>
</g>
</svg>
