<svg width="32" height="32" viewBox="0 0 32 32" fill="none" xmlns="http://www.w3.org/2000/svg">
<rect width="32" height="32" rx="16" fill="#F7CE45"/>
<path d="M15.2597 8.5064C15.5157 7.8312 16.4845 7.8312 16.7413 8.5064L18.3973 13.0936C18.5133 13.3976 18.8085 13.6 19.1381 13.6H23.2077C23.9597 13.6 24.2877 14.536 23.6965 14.9944L20.8005 17.6C20.6708 17.6998 20.576 17.838 20.5297 17.995C20.4834 18.1519 20.488 18.3195 20.5429 18.4736L21.6005 22.9561C21.8581 23.6761 21.0245 24.2945 20.3941 23.8513L16.4605 21.3553C16.3258 21.2606 16.1651 21.2098 16.0005 21.2098C15.8358 21.2098 15.6752 21.2606 15.5405 21.3553L11.6069 23.8513C10.9773 24.2945 10.1429 23.6753 10.4005 22.9561L11.4581 18.4736C11.5129 18.3195 11.5176 18.1519 11.4713 17.995C11.425 17.838 11.3302 17.6998 11.2005 17.6L8.30445 14.9944C7.71245 14.536 8.04205 13.6 8.79245 13.6H12.8621C13.0223 13.6006 13.1789 13.5524 13.3112 13.462C13.4435 13.3716 13.5452 13.2431 13.6029 13.0936L15.2589 8.5064H15.2597Z" stroke="white" stroke-width="1.2" stroke-linecap="round" stroke-linejoin="round"/>
</svg>
