<svg width="32" height="32" viewBox="0 0 32 32" fill="none" xmlns="http://www.w3.org/2000/svg">
<rect width="32" height="32" rx="16" fill="#4E94F8"/>
<path d="M9.74136 13.0616L9.60071 12.9209C8.47889 14.1942 8.04948 15.4309 8.04108 15.4561C7.98631 15.6192 7.98631 15.7956 8.04108 15.9587C8.05775 16.0111 9.8791 21.2647 15.9394 21.2647C16.5989 21.2647 17.2081 21.2017 17.7705 21.0907L17.6006 20.9208M9.74136 13.0616C9.21861 13.6566 8.85026 14.2432 8.60769 14.6951C8.47606 14.9403 8.38175 15.1454 8.3201 15.2899C8.28929 15.3621 8.26666 15.4192 8.25164 15.4585C8.23709 15.4965 8.22994 15.5173 8.22941 15.5188L8.22938 15.5189L8.22924 15.5193C8.18824 15.6414 8.18824 15.7734 8.22924 15.8955L8.23025 15.8985L8.23022 15.8985C8.2302 15.8984 8.23026 15.8986 8.23042 15.8991C8.23304 15.9066 8.26106 15.987 8.31933 16.124C8.3805 16.2679 8.47416 16.472 8.60496 16.7161C8.86674 17.2048 9.27617 17.8519 9.86992 18.4969C11.0546 19.784 12.9747 21.0663 15.9394 21.0663C16.5349 21.0663 17.0877 21.0138 17.6006 20.9208M9.74136 13.0616C9.7846 13.0123 9.8289 12.9631 9.87428 12.9138L10.8438 13.8833M9.74136 13.0616L10.571 13.8912M17.6006 20.9208C17.6798 20.9065 17.7581 20.8911 17.8354 20.8749L16.6071 19.6466M17.6006 20.9208L16.5311 19.8513M16.5311 19.8513C16.5617 19.8492 16.5921 19.8469 16.6224 19.8446L16.6071 19.6466M16.5311 19.8513L16.4668 19.787L16.6071 19.6466M16.5311 19.8513C16.341 19.865 16.145 19.8753 15.9394 19.8753C11.5715 19.8753 9.87443 16.7286 9.46445 15.7862L9.42949 15.7058L9.46533 15.6258C9.74737 14.9964 10.12 14.4121 10.571 13.8912M16.6071 19.6466C16.3904 19.6633 16.1705 19.6768 15.9394 19.6768C11.6909 19.6768 10.045 16.6232 9.64647 15.707C9.94575 15.0391 10.35 14.4234 10.8438 13.8833M10.571 13.8912L10.7034 14.0236L10.8438 13.8833M10.571 13.8912C10.6124 13.8434 10.6545 13.7961 10.6973 13.7493L10.8438 13.8833M12.1437 11.0685L12.2418 11.1666L12.3677 11.1081C13.3413 10.6554 14.5109 10.3477 15.9394 10.3477C18.9041 10.3477 20.8242 11.63 22.009 12.9172C22.6028 13.5623 23.0123 14.2094 23.2742 14.6982C23.4051 14.9424 23.4988 15.1466 23.5601 15.2905C23.5907 15.3625 23.6132 15.4193 23.6281 15.4584C23.6433 15.4983 23.6502 15.5188 23.65 15.518L23.6504 15.5193C23.6914 15.6414 23.6914 15.7734 23.6504 15.8955L23.6503 15.8959L23.6502 15.896C23.6494 15.8983 23.638 15.9312 23.6145 15.9905C23.5902 16.0517 23.5536 16.14 23.5033 16.2504C23.4028 16.4713 23.248 16.7798 23.0299 17.1352C22.5932 17.8466 21.9049 18.7415 20.8925 19.4971L20.7087 19.6343L20.8709 19.7965L23.3657 22.2913L22.5238 23.1333L8.51313 9.12266L9.3551 8.28069L12.1437 11.0685ZM19.7467 18.6723L19.8628 18.7884L19.9986 18.6961C21.4614 17.7012 22.1668 16.3534 22.4143 15.7864L22.4489 15.7071L22.4144 15.6278C22.0044 14.6854 20.3076 11.5391 15.9403 11.5387C15.085 11.5315 14.2346 11.6696 13.4256 11.9472L13.1248 12.0504L13.3497 12.2753L14.7852 13.7108L14.8856 13.8112L15.013 13.7486C15.2989 13.6082 15.6098 13.5236 15.9394 13.5236C17.1327 13.5236 18.1228 14.5137 18.1228 15.707C18.1228 16.0366 18.0382 16.3476 17.8983 16.6348L17.8363 16.762L17.9364 16.862L19.7467 18.6723Z" fill="white" stroke="#4E94F8" stroke-width="0.396982"/>
</svg>
