<svg width="32" height="32" viewBox="0 0 32 32" fill="none" xmlns="http://www.w3.org/2000/svg">
<rect width="32" height="32" rx="16" fill="#EB4D3D"/>
<path fill-rule="evenodd" clip-rule="evenodd" d="M18.8462 10.4615H22.5385V11.6923H21.3077V22.7692L20.0769 24H11.4615L10.2308 22.7692V11.6923H9V10.4615H12.6923V9.23077C12.6923 8.90435 12.822 8.5913 13.0528 8.36048C13.2836 8.12967 13.5967 8 13.9231 8H17.6154C17.9418 8 18.2549 8.12967 18.4857 8.36048C18.7165 8.5913 18.8462 8.90435 18.8462 9.23077V10.4615ZM17.6154 9.23077H13.9231V10.4615H17.6154V9.23077ZM11.4615 22.7692H20.0769V11.6923H11.4615V22.7692ZM13.9231 12.9231H12.6923V21.5385H13.9231V12.9231ZM15.1538 12.9231H16.3846V21.5385H15.1538V12.9231ZM17.6154 12.9231H18.8462V21.5385H17.6154V12.9231Z" fill="white"/>
</svg>
